<svg xmlns="http://www.w3.org/2000/svg" width="2560" height="1440" viewBox="0 0 1920 1080" preserveAspectRatio="xMidYMid meet" xmlns:v="https://vecta.io/nano"><path d="M974.3 430.5c-38.9 7.1-69.9 35-81.9 74-2.7 8.5-2.8 10-2.8 28.5 0 23.2 1.2 29 9.8 46.5 10.3 20.9 26 36.6 47.1 47 17.3 8.6 24.2 10 47 9.9 17.7 0 19.6-.2 27.8-2.7 29.2-9 52.4-28.6 65.2-55.1 26.7-55.3-1-122.5-59.2-143.6-16-5.7-36.5-7.5-53-4.5zm34.2 34c8.1 2.1 20.9 8.5 27.2 13.7 10.8 9 18.9 21.4 23.5 35.8 1.9 6.3 2.3 9.5 2.2 20 0 10.9-.4 13.5-2.8 20.5-5.1 15-14.2 27.5-26.1 36.1-24.8 17.6-55.2 17.6-80 0-22-15.8-33.4-44.2-28.1-70.6 3.2-15.8 12.6-31.6 25.1-41.9 5.9-5 18.8-11.5 26.5-13.5 7.4-2 25-2 32.5-.1zm387.8-34.1c-39.4 7.5-69.9 35.1-81.9 74.1-2.7 8.5-2.8 10-2.8 28.5 0 23.2 1.2 29 9.8 46.5 10.3 20.9 26 36.6 47.1 47 6 3 14.6 6.4 19 7.6 9 2.3 27.5 3.6 37.9 2.5l6.6-.8v-17-17.1l-3.7.7c-10.5 1.8-18.2 1.8-26.3.2-45.5-9.3-69.8-58.3-49.5-100.1 7.2-14.9 17.6-25.4 32-32.5 12.3-6.1 18.6-7.3 34.3-6.8l13.2.5v-16.2c0-16 0-16.3-2.2-17-4.7-1.4-26.3-1.5-33.5-.1zm213.9.2c-16.7 4.5-29.6 16.3-34.4 31.6-2.3 7.4-2.4 23-.3 31.1 4.4 16.9 16.5 30.1 39.5 43.2 28.2 16.1 37 25.9 37 41.3 0 13.1-11.2 26.2-22.4 26.2-4.6 0-10.4-2.7-14.7-7-4.9-4.7-6.9-9.4-6.9-16.3V577h-17.1-17.2l.5 9.2c.9 15.4 7.6 28.6 19.4 38.1 11.3 9.2 21.4 12.7 36.7 12.7 15.8 0 26.4-4.6 38.2-16.4 7.8-7.9 13.3-17.3 16.1-27.6 2.4-8.7 2.4-25.3 0-33.5-6-20.4-19.2-34.2-52.2-54.4-13.2-8-19.1-13.3-22-19.6-5.8-12.2-.1-22.5 12.4-22.5 8.3 0 13.2 5.8 13.2 15.7v3.3h17.5 17.4l-.5-6.8c-1.3-15.2-4.9-23.8-13.8-32.8-11.3-11.3-30.4-16.2-46.4-11.8zM233 533v103h17c10.6 0 17-.4 17-1 0-.5-1.1-26.3-2.5-57.2l-2.3-60.1c.2-2.7 5.4 14.7 18.7 63.5l19.1 68.7c.9 1.8-.9 8 20.1-68.7 13.3-48.8 18.5-66.2 18.7-63.5.2 2.1-.9 29.1-2.3 60.1L334 635c0 .6 6.4 1 17 1h17V533 430h-16.2-16.3L318 485.4l-17.5 55.4-3.5-11.2-17.5-55.3-14-44.3h-16.2H233v103zm146.3-102.3c.2.5 13.5 27.8 29.5 60.9l29.2 60.1v42.1V636h17.5H473v-42.6-42.6l29-59.6 29-60.4c0-.4-8-.8-17.8-.8h-17.7l-19.9 41c-11 22.6-20.3 40.7-20.8 40.2-.4-.4-9.5-18.7-20.1-40.7l-19.4-40-18.2-.3c-10-.1-18.1.1-17.8.5zM618 532.9V636h17 17v-24.5V587h9.3c36.2-.1 66.3-24.6 74.2-60.4 2.4-10.9 1.7-32.1-1.5-42.1-8-25.3-27.1-43.9-53-51.6-6.8-2-10.3-2.3-35.2-2.6l-27.8-.5v103.1zm53-67.2c8.1 2.2 14.4 6 20.1 12 19.5 20.6 13.7 58.2-11 70.7-6.3 3.2-15.9 5.6-22.8 5.6H652v-45.6-45.6l6.8.7c3.7.4 9.2 1.3 12.2 2.2zm84 67.2V636h17 17v-23.9-24l8.5-.3 8.5-.3 16.2 24.2 16.1 24.3h20.9 20.9l-4.4-6.3c-2.5-3.4-11.9-16.8-21-29.7l-16.4-23.4 4.1-2.6c5.4-3.4 16.2-15.3 20.5-22.4 4.5-7.5 7.9-16.3 9.8-24.9 2.2-10.5 1.3-32.7-1.7-42.2-8-25.3-27.1-43.9-53-51.6-6.8-2-10.3-2.3-35.2-2.6l-27.8-.5v103.1zm53-67.2c8.1 2.2 14.4 6 20.1 12 9.3 9.8 13.4 24.1 11.1 38.8-3.4 21.6-19.1 35.4-42.4 37.2l-7.8.6v-45.7-45.8l6.8.7c3.7.4 9.2 1.3 12.2 2.2zm314-19.2V463h15.5 15.5v56.7c0 37.1-.4 58.8-1.1 63-1.5 8.3-5.9 15-11.9 18-4 2.1-5.8 2.3-20.2 2.3H1104v16.5V636h19.3c14.8 0 20.6-.4 24.8-1.6 18.1-5.3 31.9-20.9 36.9-41.5 1.9-8 2-11.7 2-85.7V430h-32.5-32.5v16.5zm85 86.5v103h48.5 48.5v-16.5V603h-31.5-31.5v-8-8h26 26v-16.5V554h-26-26v-45.5V463h31.5 31.5v-16.5V430h-48.5-48.5v103zm241-86.5V463h20 20v86.5V636h17.5 17.5v-86.5V463h20 20v-16.5V430h-57.5-57.5v16.5z"/></svg>