<?xml version="1.0" standalone="no"?>
<!DOCTYPE svg PUBLIC "-//W3C//DTD SVG 20010904//EN"
 "http://www.w3.org/TR/2001/REC-SVG-20010904/DTD/svg10.dtd">
<svg version="1.0" xmlns="http://www.w3.org/2000/svg"
 width="1920.000000pt" height="1080.000000pt" viewBox="0 0 1920.000000 1080.000000"
 preserveAspectRatio="xMidYMid meet">
<metadata>
Created by potrace 1.16, written by Peter Selinger 2001-2019
</metadata>
<g transform="translate(0.000000,1080.000000) scale(0.100000,-0.100000)"
fill="#000000" stroke="none">
<path d="M784 6166 c-243 -55 -444 -220 -549 -450 -88 -192 -89 -452 -2 -648
96 -216 305 -388 539 -443 64 -15 221 -20 277 -9 l31 7 0 128 c0 71 -3 129 -7
129 -3 0 -35 -5 -69 -11 -232 -40 -493 146 -559 396 -68 264 84 541 348 633
62 21 84 24 179 20 l108 -3 0 122 c0 84 -4 124 -12 129 -23 14 -221 14 -284 0z"/>
<path d="M2909 6165 c-104 -33 -202 -128 -235 -228 -12 -36 -15 -75 -12 -151
3 -87 7 -110 32 -161 44 -89 139 -177 280 -260 65 -38 141 -87 168 -108 96
-77 129 -179 88 -274 -25 -60 -51 -86 -104 -108 -93 -39 -206 42 -206 149 l0
36 -131 0 -132 0 5 -79 c8 -143 96 -268 235 -334 64 -30 74 -32 183 -32 103 0
121 3 170 26 89 42 163 117 213 217 l42 85 0 121 c0 103 -4 130 -23 178 -51
125 -141 214 -357 351 -127 80 -177 124 -194 170 -33 86 10 157 94 157 59 0
89 -28 99 -93 l7 -47 130 0 129 0 0 43 c0 140 -74 260 -200 323 -46 23 -70 28
-145 31 -59 2 -106 -2 -136 -12z"/>
<path d="M5132 5407 c-144 -426 -262 -777 -262 -780 0 -4 60 -7 133 -7 l134 0
35 103 35 102 218 3 c168 2 220 -1 227 -10 4 -7 22 -55 39 -105 l31 -93 134 0
c74 0 134 2 134 4 0 2 -117 352 -260 776 -143 425 -260 774 -260 776 0 2 -17
4 -38 4 l-38 0 -262 -773z m366 -125 c34 -103 62 -191 62 -195 0 -4 -60 -7
-134 -7 l-133 0 66 195 c36 107 68 195 71 195 3 0 33 -85 68 -188z"/>
<path d="M8882 5407 c-144 -426 -262 -777 -262 -780 0 -4 60 -7 133 -7 l134 0
35 103 35 102 218 3 c168 2 220 -1 227 -10 4 -7 22 -55 39 -105 l31 -93 134 0
c74 0 134 2 134 4 0 2 -117 352 -260 776 -143 425 -260 774 -260 776 0 2 -17
4 -38 4 l-38 0 -262 -773z m366 -125 c34 -103 62 -191 62 -195 0 -4 -60 -7
-134 -7 l-133 0 66 195 c36 107 68 195 71 195 3 0 33 -85 68 -188z"/>
<path d="M14274 6166 c-243 -55 -444 -220 -549 -450 -88 -192 -89 -452 -2
-648 96 -216 305 -388 539 -443 64 -15 221 -20 277 -9 l31 7 0 128 c0 71 -3
129 -7 129 -3 0 -35 -5 -69 -11 -232 -40 -493 146 -559 396 -68 264 84 541
348 633 62 21 84 24 179 20 l108 -3 0 122 c0 84 -4 124 -12 129 -23 14 -221
14 -284 0z"/>
<path d="M15204 6166 c-243 -56 -444 -220 -549 -450 -88 -192 -89 -452 -2
-648 96 -216 305 -388 539 -443 85 -20 270 -19 361 1 237 53 453 234 546 457
178 431 -48 917 -494 1063 -99 33 -301 43 -401 20z m317 -266 c329 -101 476
-500 290 -787 -83 -129 -217 -219 -363 -243 -304 -52 -598 206 -598 525 0 224
144 425 359 501 87 31 220 33 312 4z"/>
<path d="M1230 5396 l0 -776 130 0 130 0 0 180 0 180 64 0 63 0 119 -180 119
-180 158 0 c86 0 157 2 157 5 0 2 -69 102 -154 222 -134 188 -152 219 -138
228 9 6 46 39 82 75 115 114 170 251 170 425 0 268 -138 468 -388 563 -63 24
-80 26 -289 30 l-223 4 0 -776z m416 497 c80 -23 143 -77 184 -157 32 -64 35
-76 35 -161 0 -85 -3 -97 -35 -161 -56 -110 -161 -174 -286 -174 l-54 0 0 340
0 341 53 -6 c28 -4 75 -13 103 -22z"/>
<path d="M2260 5395 l0 -775 130 0 130 0 0 775 0 775 -130 0 -130 0 0 -775z"/>
<path d="M3500 6045 l0 -125 150 0 150 0 0 -650 0 -650 135 0 135 0 0 650 0
650 150 0 150 0 0 125 0 125 -435 0 -435 0 0 -125z"/>
<path d="M4510 5395 l0 -775 130 0 130 0 0 775 0 775 -130 0 -130 0 0 -775z"/>
<path d="M6100 5395 l0 -775 130 0 130 0 2 428 3 428 181 -426 182 -425 126
-3 126 -3 0 776 0 775 -130 0 -130 0 -2 -435 -3 -435 -185 435 -185 435 -122
0 -123 0 0 -775z"/>
<path d="M7670 5396 l0 -776 163 0 c132 0 179 4 243 20 284 73 503 290 571
568 25 103 23 286 -6 386 -61 218 -209 398 -406 495 -127 63 -177 73 -382 78
l-183 5 0 -776z m426 469 c187 -90 304 -271 304 -469 0 -127 -31 -215 -111
-323 -64 -86 -208 -173 -326 -198 l-33 -7 0 523 0 522 46 -7 c26 -3 80 -22
120 -41z"/>
<path d="M9480 6162 c0 -5 105 -318 234 -698 128 -379 245 -726 260 -771 l28
-83 38 0 38 0 65 193 c35 105 153 454 261 773 108 320 196 585 196 588 0 3
-60 6 -134 6 l-134 0 -143 -429 c-79 -236 -146 -428 -149 -426 -4 2 -71 196
-151 430 l-144 425 -132 0 c-73 0 -133 -4 -133 -8z"/>
<path d="M10710 5395 l0 -775 130 0 130 0 0 775 0 775 -130 0 -130 0 0 -775z"/>
<path d="M11110 5396 l0 -776 163 0 c132 0 179 4 243 20 284 73 503 290 571
568 25 103 23 286 -6 386 -61 218 -209 398 -406 495 -127 63 -177 73 -382 78
l-183 5 0 -776z m426 469 c187 -90 304 -271 304 -469 0 -127 -31 -215 -111
-323 -64 -86 -208 -173 -326 -198 l-33 -7 0 523 0 522 46 -7 c26 -3 80 -22
120 -41z"/>
<path d="M12230 5395 l0 -775 365 0 365 0 0 125 0 125 -235 0 -235 0 0 60 0
60 195 0 195 0 0 125 0 125 -195 0 -195 0 0 340 0 340 235 0 235 0 0 125 0
125 -365 0 -365 0 0 -775z"/>
<path d="M16280 5395 l0 -775 130 0 130 0 2 428 3 428 181 -426 182 -425 126
-3 126 -3 0 776 0 775 -130 0 -130 0 -2 -435 -3 -435 -185 435 -185 435 -122
0 -123 0 0 -775z"/>
<path d="M17300 6045 l0 -125 150 0 150 0 0 -650 0 -650 135 0 135 0 0 650 0
650 150 0 150 0 0 125 0 125 -435 0 -435 0 0 -125z"/>
<path d="M18310 5395 l0 -775 365 0 365 0 0 125 0 125 -235 0 -235 0 0 60 0
60 195 0 195 0 0 125 0 125 -195 0 -195 0 0 340 0 340 235 0 235 0 0 125 0
125 -365 0 -365 0 0 -775z"/>
<path d="M5405 4379 c-60 -15 -109 -54 -141 -112 -27 -49 -29 -60 -32 -199
l-4 -148 -44 0 -44 0 0 -75 0 -75 45 0 45 0 0 -255 0 -255 85 0 85 0 0 255 0
255 95 0 95 0 0 75 0 75 -95 0 -95 0 0 130 c0 126 1 132 25 155 28 29 84 33
125 10 14 -8 28 -14 32 -15 10 0 40 110 34 126 -15 39 -139 70 -211 53z"/>
<path d="M12540 3958 c1 -451 8 -581 37 -631 26 -45 75 -67 151 -67 62 0 62 0
62 29 0 15 3 49 6 74 l7 46 -39 3 c-31 2 -40 8 -45 28 -4 14 -7 229 -8 478
l-1 452 -85 0 -85 0 0 -412z"/>
<path d="M3857 4229 c-163 -38 -255 -176 -218 -326 27 -105 93 -154 298 -218
148 -47 196 -75 207 -120 11 -44 -19 -91 -77 -120 -97 -48 -249 -30 -386 46
-29 17 -54 29 -55 27 -2 -2 -11 -36 -22 -77 l-18 -73 24 -20 c14 -11 51 -33
82 -49 172 -87 392 -76 529 25 87 64 128 196 96 307 -32 108 -108 163 -302
219 -60 18 -127 41 -148 51 -75 39 -73 100 5 140 65 33 166 24 281 -25 48 -21
89 -37 91 -35 6 8 36 126 36 141 0 21 -118 82 -196 102 -67 17 -166 19 -227 5z"/>
<path d="M9490 3741 l0 -481 193 0 c140 0 209 4 252 15 229 59 355 225 355
467 -1 221 -106 377 -306 450 -52 19 -85 22 -276 26 l-218 4 0 -481z m429 280
c78 -32 126 -73 158 -139 24 -49 28 -69 28 -142 0 -73 -4 -93 -28 -142 -52
-106 -148 -157 -309 -166 l-98 -5 0 313 0 313 98 -5 c67 -4 114 -12 151 -27z"/>
<path d="M5750 4040 l0 -120 -55 0 -55 0 0 -75 0 -75 45 0 45 0 0 -150 c0
-177 11 -237 53 -292 66 -86 170 -106 280 -56 31 15 57 32 57 38 0 15 -30 120
-34 120 -2 0 -20 -7 -39 -15 -57 -24 -102 -20 -126 11 -19 24 -21 40 -21 185
l0 159 95 0 95 0 0 75 0 75 -95 0 -95 0 0 120 0 120 -75 0 -75 0 0 -120z"/>
<path d="M7385 3933 c-84 -10 -205 -54 -205 -75 0 -5 7 -37 16 -72 l16 -64 55
25 c66 30 160 41 203 23 28 -12 60 -54 60 -80 0 -6 -29 -10 -72 -10 -146 -1
-262 -40 -306 -105 -29 -41 -39 -128 -22 -179 16 -49 66 -105 109 -123 89 -38
210 -34 293 8 37 19 38 19 70 -1 39 -23 146 -29 153 -7 2 6 5 40 7 74 l4 62
-30 3 -31 3 -6 165 c-7 185 -16 221 -76 282 -50 51 -152 81 -238 71z m145
-444 c0 -48 -1 -51 -37 -66 -45 -19 -121 -28 -157 -19 -31 8 -59 47 -50 70 13
34 100 63 197 65 l47 1 0 -51z"/>
<path d="M4620 3913 c-85 -29 -153 -93 -193 -180 -18 -39 -22 -66 -22 -148 0
-87 3 -107 26 -155 31 -67 93 -130 157 -161 72 -34 216 -39 296 -9 71 27 140
92 176 165 22 44 25 63 25 160 0 97 -3 116 -25 160 -35 72 -105 138 -173 164
-71 26 -199 28 -267 4z m203 -157 c97 -40 136 -186 74 -277 -36 -53 -71 -72
-136 -77 -51 -4 -67 -1 -105 22 -114 67 -115 253 -3 321 48 28 118 33 170 11z"/>
<path d="M8092 3909 c-18 -12 -44 -38 -58 -58 l-24 -36 0 53 0 52 -75 0 -75 0
0 -330 0 -330 85 0 85 0 0 173 c0 197 13 261 61 310 27 27 34 29 85 25 l54 -5
21 69 c28 92 25 98 -58 98 -52 0 -76 -5 -101 -21z"/>
<path d="M8550 3914 c-146 -53 -229 -188 -217 -351 14 -190 137 -311 326 -321
101 -6 173 9 234 48 l45 28 -19 68 c-10 37 -20 69 -22 71 -2 2 -31 -9 -63 -24
-49 -23 -72 -28 -141 -28 -91 0 -118 13 -161 76 l-23 34 233 5 233 5 0 100 c0
84 -4 108 -23 147 -28 56 -72 102 -127 131 -54 28 -209 35 -275 11z m222 -169
c14 -11 33 -35 42 -52 l16 -33 -160 0 c-88 0 -160 3 -160 7 0 16 52 72 82 87
45 23 144 18 180 -9z"/>
<path d="M10600 3914 c-146 -53 -229 -188 -217 -351 14 -190 137 -311 326
-321 101 -6 173 9 234 48 l45 28 -19 68 c-10 37 -20 69 -22 71 -2 2 -31 -9
-63 -24 -49 -23 -72 -28 -141 -28 -91 0 -118 13 -161 76 l-23 34 233 5 233 5
0 100 c0 84 -4 108 -23 147 -28 56 -72 102 -127 131 -54 28 -209 35 -275 11z
m222 -169 c14 -11 33 -35 42 -52 l16 -33 -160 0 c-88 0 -160 3 -160 7 0 16 52
72 82 87 45 23 144 18 180 -9z"/>
<path d="M11980 3914 c-146 -53 -229 -188 -217 -351 14 -190 137 -311 326
-321 101 -6 173 9 234 48 l45 28 -19 68 c-10 37 -20 69 -22 71 -2 2 -31 -9
-63 -24 -49 -23 -72 -28 -141 -28 -91 0 -118 13 -161 76 l-23 34 233 5 233 5
0 100 c0 84 -4 108 -23 147 -28 56 -72 102 -127 131 -54 28 -209 35 -275 11z
m222 -169 c14 -11 33 -35 42 -52 l16 -33 -160 0 c-88 0 -160 3 -160 7 0 16 52
72 82 87 45 23 144 18 180 -9z"/>
<path d="M13070 3913 c-85 -29 -153 -93 -193 -180 -18 -39 -22 -66 -22 -148 0
-87 3 -107 26 -155 31 -67 93 -130 157 -161 72 -34 216 -39 296 -9 71 27 140
92 176 165 22 44 25 63 25 160 0 97 -3 116 -25 160 -35 72 -105 138 -173 164
-71 26 -199 28 -267 4z m203 -157 c97 -40 136 -186 74 -277 -36 -53 -71 -72
-136 -77 -51 -4 -67 -1 -105 22 -114 67 -115 253 -3 321 48 28 118 33 170 11z"/>
<path d="M13921 3917 c-19 -6 -51 -27 -73 -47 l-38 -37 0 44 0 43 -75 0 -75 0
0 -500 0 -500 85 0 85 0 0 196 0 195 33 -24 c46 -35 91 -47 171 -47 91 0 156
29 214 95 61 70 86 140 86 250 0 110 -25 180 -86 250 -60 68 -123 95 -218 94
-41 -1 -90 -6 -109 -12z m170 -170 c46 -30 79 -98 79 -162 0 -64 -33 -132 -79
-162 -45 -31 -119 -31 -172 -1 -48 27 -89 102 -89 163 0 59 41 136 87 163 52
30 128 30 174 -1z"/>
<path d="M14640 3914 c-146 -53 -229 -188 -217 -351 14 -190 137 -311 326
-321 101 -6 173 9 234 48 l45 28 -19 68 c-10 37 -20 69 -22 71 -2 2 -31 -9
-63 -24 -49 -23 -72 -28 -141 -28 -91 0 -118 13 -161 76 l-23 34 233 5 233 5
0 100 c0 84 -4 108 -23 147 -28 56 -72 102 -127 131 -54 28 -209 35 -275 11z
m222 -169 c14 -11 33 -35 42 -52 l16 -33 -160 0 c-88 0 -160 3 -160 7 0 16 52
72 82 87 45 23 144 18 180 -9z"/>
<path d="M15432 3909 c-18 -12 -44 -38 -58 -58 l-24 -36 0 53 0 52 -75 0 -75
0 0 -330 0 -330 85 0 85 0 0 173 c0 197 13 261 61 310 27 27 34 29 85 25 l54
-5 21 69 c28 92 25 98 -58 98 -52 0 -76 -5 -101 -21z"/>
<path d="M6151 3893 c6 -16 55 -156 109 -313 54 -157 102 -293 105 -302 6 -14
19 -18 59 -18 l51 0 69 170 c39 93 72 167 75 165 3 -3 35 -78 72 -168 l68
-162 53 0 53 0 107 310 c59 171 110 318 114 328 5 16 -2 18 -87 15 l-92 -3
-51 -178 c-27 -97 -53 -174 -56 -170 -4 5 -38 86 -76 181 l-69 172 -38 -2 -39
-3 -73 -179 c-40 -98 -75 -174 -77 -170 -3 5 -27 87 -53 182 l-49 172 -93 0
-93 0 11 -27z"/>
<path d="M11127 3753 c42 -93 108 -240 148 -328 l72 -160 52 0 53 0 144 320
c79 176 144 323 144 328 0 4 -40 7 -89 7 l-89 0 -78 -200 c-44 -110 -81 -200
-84 -200 -3 0 -41 90 -84 200 l-79 200 -93 0 -92 0 75 -167z"/>
</g>
</svg>
