<svg xmlns="http://www.w3.org/2000/svg" xmlns:xlink="http://www.w3.org/1999/xlink" width="2560" height="1440" viewBox="0 0 1920 1080" preserveAspectRatio="xMidYMid meet" xmlns:v="https://vecta.io/nano"><use xlink:href="#B"/><path d="M290.9 463.5c-10.4 3.3-20.2 12.8-23.5 22.8-1.2 3.6-1.5 7.5-1.2 15.1.3 8.7.7 11 3.2 16.1 4.4 8.9 13.9 17.7 28 26 6.5 3.8 14.1 8.7 16.8 10.8 9.6 7.7 12.9 17.9 8.8 27.4-2.5 6-5.1 8.6-10.4 10.8-9.3 3.9-20.6-4.2-20.6-14.9V574h-13.1-13.2l.5 7.9c.8 14.3 9.6 26.8 23.5 33.4 6.4 3 7.4 3.2 18.3 3.2 10.3 0 12.1-.3 17-2.6 8.9-4.2 16.3-11.7 21.3-21.7l4.2-8.5v-12.1c0-10.3-.4-13-2.3-17.8-5.1-12.5-14.1-21.4-35.7-35.1-12.7-8-17.7-12.4-19.4-17-3.3-8.6 1-15.7 9.4-15.7 5.9 0 8.9 2.8 9.9 9.3l.7 4.7h13H339v-4.3c0-14-7.4-26-20-32.3-4.6-2.3-7-2.8-14.5-3.1-5.9-.2-10.6.2-13.6 1.2z"/><use xlink:href="#C"/><use xlink:href="#C" x="375"/><use xlink:href="#B" x="1349"/><path d="M1520.4 463.4c-24.3 5.6-44.4 22-54.9 45-8.8 19.2-8.9 45.2-.2 64.8 9.6 21.6 30.5 38.8 53.9 44.3 8.5 2 27 1.9 36.1-.1 23.7-5.3 45.3-23.4 54.6-45.7 17.8-43.1-4.8-91.7-49.4-106.3-9.9-3.3-30.1-4.3-40.1-2zm31.7 26.6c32.9 10.1 47.6 50 29 78.7-8.3 12.9-21.7 21.9-36.3 24.3-30.4 5.2-59.8-20.6-59.8-52.5 0-22.4 14.4-42.5 35.9-50.1 8.7-3.1 22-3.3 31.2-.4zM123 540.4V618h13 13v-18-18h6.4 6.3l11.9 18 11.9 18h15.8c8.6 0 15.7-.2 15.7-.5 0-.2-6.9-10.2-15.4-22.2-13.4-18.8-15.2-21.9-13.8-22.8.9-.6 4.6-3.9 8.2-7.5 11.5-11.4 17-25.1 17-42.5 0-26.8-13.8-46.8-38.8-56.3-6.3-2.4-8-2.6-28.9-3l-22.3-.4v77.6zm41.6-49.7c8 2.3 14.3 7.7 18.4 15.7 3.2 6.4 3.5 7.6 3.5 16.1s-.3 9.7-3.5 16.1c-5.6 11-16.1 17.4-28.6 17.4H149v-34-34.1l5.3.6c2.8.4 7.5 1.3 10.3 2.2zm61.4 49.8V618h13 13v-77.5V463h-13-13v77.5zm124-65V488h15 15v65 65h13.5H407v-65-65h15 15v-12.5V463h-43.5H350v12.5zm101 65V618h13 13v-77.5V463h-13-13v77.5zm159 0V618h13 13l.2-42.8.3-42.8 18.1 42.6 18.2 42.5 12.6.3 12.6.3v-77.6V463h-13-13l-.2 43.5-.3 43.5-18.5-43.5-18.5-43.5h-12.2H610v77.5z"/><use xlink:href="#D"/><path d="M948 463.8c0 .5 10.5 31.8 23.4 69.8l26 77.1 2.8 8.3h3.8 3.8l6.5-19.3 26.1-77.3 19.6-58.8c0-.3-6-.6-13.4-.6h-13.4l-14.3 42.9-14.9 42.6c-.4-.2-7.1-19.6-15.1-43L974.5 463h-13.2c-7.3 0-13.3.4-13.3.8zm123 76.7V618h13 13v-77.5V463h-13-13v77.5z"/><use xlink:href="#D" x="344"/><use xlink:href="#E"/><path d="M1628 540.5V618h13 13l.2-42.8.3-42.8 18.1 42.6 18.2 42.5 12.6.3 12.6.3v-77.6V463h-13-13l-.2 43.5-.3 43.5-18.5-43.5-18.5-43.5h-12.2-12.3v77.5zm102-65V488h15 15v65 65h13.5 13.5v-65-65h15 15v-12.5V463h-43.5-43.5v12.5z"/><use xlink:href="#E" x="608"/><path d="M540.5 642.1c-6 1.5-10.9 5.4-14.1 11.2-2.7 4.9-2.9 6-3.2 19.9l-.4 14.8h-4.4-4.4v7.5 7.5h4.5 4.5v25.5V754h8.5 8.5v-25.5V703h9.5 9.5v-7.5-7.5h-9.5-9.5v-13c0-12.6.1-13.2 2.5-15.5 2.8-2.9 8.4-3.3 12.5-1 1.4.8 2.8 1.4 3.2 1.5 1 0 4-11 3.4-12.6-1.5-3.9-13.9-7-21.1-5.3zm713.5 42.1c.1 45.1.8 58.1 3.7 63.1 2.6 4.5 7.5 6.7 15.1 6.7 6.2 0 6.2 0 6.2-2.9 0-1.5.3-4.9.6-7.4l.7-4.6-3.9-.3c-3.1-.2-4-.8-4.5-2.8-.4-1.4-.7-22.9-.8-47.8l-.1-45.2h-8.5-8.5v41.2zm-868.3-27.1c-16.3 3.8-25.5 17.6-21.8 32.6 2.7 10.5 9.3 15.4 29.8 21.8 14.8 4.7 19.6 7.5 20.7 12 1.1 4.4-1.9 9.1-7.7 12-9.7 4.8-24.9 3-38.6-4.6-2.9-1.7-5.4-2.9-5.5-2.7-.2.2-1.1 3.6-2.2 7.7l-1.8 7.3 2.4 2c1.4 1.1 5.1 3.3 8.2 4.9 17.2 8.7 39.2 7.6 52.9-2.5 8.7-6.4 12.8-19.6 9.6-30.7-3.2-10.8-10.8-16.3-30.2-21.9-6-1.8-12.7-4.1-14.8-5.1-7.5-3.9-7.3-10 .5-14 6.5-3.3 16.6-2.4 28.1 2.5 4.8 2.1 8.9 3.7 9.1 3.5.6-.8 3.6-12.6 3.6-14.1 0-2.1-11.8-8.2-19.6-10.2-6.7-1.7-16.6-1.9-22.7-.5zM949 705.9V754h19.3c14 0 20.9-.4 25.2-1.5 22.9-5.9 35.5-22.5 35.5-46.7-.1-22.1-10.6-37.7-30.6-45-5.2-1.9-8.5-2.2-27.6-2.6l-21.8-.4v48.1zm42.9-28c7.8 3.2 12.6 7.3 15.8 13.9 2.4 4.9 2.8 6.9 2.8 14.2s-.4 9.3-2.8 14.2c-5.2 10.6-14.8 15.7-30.9 16.6l-9.8.5V706v-31.3l9.8.5c6.7.4 11.4 1.2 15.1 2.7zM575 676v12h-5.5-5.5v7.5 7.5h4.5 4.5v15c0 17.7 1.1 23.7 5.3 29.2 6.6 8.6 17 10.6 28 5.6 3.1-1.5 5.7-3.2 5.7-3.8 0-1.5-3-12-3.4-12-.2 0-2 .7-3.9 1.5-5.7 2.4-10.2 2-12.6-1.1-1.9-2.4-2.1-4-2.1-18.5V703h9.5 9.5v-7.5-7.5h-9.5-9.5v-12-12h-7.5-7.5v12zm163.5 10.7c-8.4 1-20.5 5.4-20.5 7.5 0 .5.7 3.7 1.6 7.2l1.6 6.4 5.5-2.5c6.6-3 16-4.1 20.3-2.3 2.8 1.2 6 5.4 6 8 0 .6-2.9 1-7.2 1-14.6.1-26.2 4-30.6 10.5-2.9 4.1-3.9 12.8-2.2 17.9 1.6 4.9 6.6 10.5 10.9 12.3 8.9 3.8 21 3.4 29.3-.8 3.7-1.9 3.8-1.9 7 .1 3.9 2.3 14.6 2.9 15.3.7.2-.6.5-4 .7-7.4l.4-6.2-3-.3-3.1-.3-.6-16.5c-.7-18.5-1.6-22.1-7.6-28.2-5-5.1-15.2-8.1-23.8-7.1zm14.5 44.4c0 4.8-.1 5.1-3.7 6.6-4.5 1.9-12.1 2.8-15.7 1.9-3.1-.8-5.9-4.7-5-7 1.3-3.4 10-6.3 19.7-6.5l4.7-.1v5.1z"/><use xlink:href="#F"/><use xlink:href="#G"/><use xlink:href="#H"/><use xlink:href="#H" x="205"/><use xlink:href="#H" x="343"/><use xlink:href="#F" x="845"/><path d="M1392.1 688.3c-1.9.6-5.1 2.7-7.3 4.7l-3.8 3.7v-4.4-4.3h-7.5-7.5v50 50h8.5 8.5v-19.6-19.5l3.3 2.4c4.6 3.5 9.1 4.7 17.1 4.7 9.1 0 15.6-2.9 21.4-9.5 6.1-7 8.6-14 8.6-25s-2.5-18-8.6-25c-6-6.8-12.3-9.5-21.8-9.4-4.1.1-9 .6-10.9 1.2zm17 17c4.6 3 7.9 9.8 7.9 16.2s-3.3 13.2-7.9 16.2c-4.5 3.1-11.9 3.1-17.2.1-4.8-2.7-8.9-10.2-8.9-16.3 0-5.9 4.1-13.6 8.7-16.3 5.2-3 12.8-3 17.4.1z"/><use xlink:href="#H" x="609"/><use xlink:href="#G" x="734"/><path d="M615.1 690.7c.6 1.6 5.5 15.6 10.9 31.3l10.5 30.2c.6 1.4 1.9 1.8 5.9 1.8h5.1l6.9-17c3.9-9.3 7.2-16.7 7.5-16.5.3.3 3.5 7.8 7.2 16.8l6.8 16.2h5.3 5.3l10.7-31 11.4-32.8c.5-1.6-.2-1.8-8.7-1.5l-9.2.3-5.1 17.8c-2.7 9.7-5.3 17.4-5.6 17-.4-.5-3.8-8.6-7.6-18.1l-6.9-17.2-3.8.2-3.9.3-7.3 17.9c-4 9.8-7.5 17.4-7.7 17-.3-.5-2.7-8.7-5.3-18.2l-4.9-17.2h-9.3-9.3l1.1 2.7zm497.6 14l14.8 32.8 7.2 16h5.2 5.3l14.4-32 14.4-32.8c0-.4-4-.7-8.9-.7h-8.9l-7.8 20c-4.4 11-8.1 20-8.4 20s-4.1-9-8.4-20l-7.9-20h-9.3-9.2l7.5 16.7z"/><defs ><path id="B" d="M78.4 463.4c-24.3 5.5-44.4 22-54.9 45-8.8 19.2-8.9 45.2-.2 64.8 9.6 21.6 30.5 38.8 53.9 44.3 6.4 1.5 22.1 2 27.7.9l3.1-.7v-12.8c0-7.1-.3-12.9-.7-12.9-.3 0-3.5.5-6.9 1.1-23.2 4-49.3-14.6-55.9-39.6-6.8-26.4 8.4-54.1 34.8-63.3 6.2-2.1 8.4-2.4 17.9-2l10.8.3v-12.2c0-8.4-.4-12.4-1.2-12.9-2.3-1.4-22.1-1.4-28.4 0z"/><path id="C" d="M513.2 539.3l-26.2 78c0 .4 6 .7 13.3.7h13.4l3.5-10.3 3.5-10.2 21.8-.3c16.8-.2 22 .1 22.7 1 .4.7 2.2 5.5 3.9 10.5l3.1 9.3h13.4c7.4 0 13.4-.2 13.4-.4s-11.7-35.2-26-77.6l-26-77.6c0-.2-1.7-.4-3.8-.4h-3.8l-26.2 77.3zm36.6 12.5l6.2 19.5c0 .4-6 .7-13.4.7h-13.3l6.6-19.5c3.6-10.7 6.8-19.5 7.1-19.5s3.3 8.5 6.8 18.8z"/><path id="D" d="M767 540.4V618h16.3c13.2 0 17.9-.4 24.3-2 28.4-7.3 50.3-29 57.1-56.8 2.5-10.3 2.3-28.6-.6-38.6-6.1-21.8-20.9-39.8-40.6-49.5-12.7-6.3-17.7-7.3-38.2-7.8l-18.3-.5v77.6zm42.6-46.9c18.7 9 30.4 27.1 30.4 46.9 0 12.7-3.1 21.5-11.1 32.3-6.4 8.6-20.8 17.3-32.6 19.8l-3.3.7v-52.3-52.2l4.6.7c2.6.3 8 2.2 12 4.1z"/><path id="E" d="M1223 540.5V618h36.5 36.5v-12.5V593h-23.5-23.5v-6-6h19.5 19.5v-12.5V556h-19.5-19.5v-34-34h23.5 23.5v-12.5V463h-36.5-36.5v77.5z"/><path id="F" d="M462 688.7c-8.5 2.9-15.3 9.3-19.3 18-1.8 3.9-2.2 6.6-2.2 14.8 0 8.7.3 10.7 2.6 15.5 3.1 6.7 9.3 13 15.7 16.1 7.2 3.4 21.6 3.9 29.6.9 7.1-2.7 14-9.2 17.6-16.5 2.2-4.4 2.5-6.3 2.5-16s-.3-11.6-2.5-16c-3.5-7.2-10.5-13.8-17.3-16.4-7.1-2.6-19.9-2.8-26.7-.4zm20.3 15.7c9.7 4 13.6 18.6 7.4 27.7-3.6 5.3-7.1 7.2-13.6 7.7-5.1.4-6.7.1-10.5-2.2-11.4-6.7-11.5-25.3-.3-32.1 4.8-2.8 11.8-3.3 17-1.1z"/><path id="G" d="M809.2 689.1c-1.8 1.2-4.4 3.8-5.8 5.8l-2.4 3.6v-5.3-5.2h-7.5-7.5v33 33h8.5 8.5v-17.3c0-19.7 1.3-26.1 6.1-31 2.7-2.7 3.4-2.9 8.5-2.5l5.4.5 2.1-6.9c2.8-9.2 2.5-9.8-5.8-9.8-5.2 0-7.6.5-10.1 2.1z"/><path id="H" d="M855 688.6c-14.6 5.3-22.9 18.8-21.7 35.1 1.4 19 13.7 31.1 32.6 32.1 10.1.6 17.3-.9 23.4-4.8l4.5-2.8-1.9-6.8c-1-3.7-2-6.9-2.2-7.1s-3.1.9-6.3 2.4c-4.9 2.3-7.2 2.8-14.1 2.8-9.1 0-11.8-1.3-16.1-7.6l-2.3-3.4 23.3-.5 23.3-.5v-10c0-8.4-.4-10.8-2.3-14.7-2.8-5.6-7.2-10.2-12.7-13.1-5.4-2.8-20.9-3.5-27.5-1.1zm22.2 16.9c1.4 1.1 3.3 3.5 4.2 5.2l1.6 3.3h-16c-8.8 0-16-.3-16-.7 0-1.6 5.2-7.2 8.2-8.7 4.5-2.3 14.4-1.8 18 .9z"/></defs></svg>